<?xml version="1.0" encoding="utf-8"?>
<!-- Generator: Adobe Illustrator 16.0.0, SVG Export Plug-In . SVG Version: 6.00 Build 0)  -->
<!DOCTYPE svg PUBLIC "-//W3C//DTD SVG 1.1//EN" "http://www.w3.org/Graphics/SVG/1.1/DTD/svg11.dtd">
<svg version="1.1" id="Capa_1" xmlns="http://www.w3.org/2000/svg" xmlns:xlink="http://www.w3.org/1999/xlink" x="0px" y="0px"
	 width="449.397px" height="666.721px" viewBox="119.993 1162.124 449.397 666.721"
	 enable-background="new 119.993 1162.124 449.397 666.721" xml:space="preserve">
<path fill="#F1F1F2" d="M559.621,1702.327c-5.395,0-9.767,4.373-9.767,9.768v91.82c0,2.975-2.42,5.393-5.393,5.393h-52.5v-170.884
	h-19.534v170.886H366.713l30.655-33.727c3.351-3.686,4.931-8.936,4.226-14.047c-0.015-0.098-0.028-0.195-0.046-0.297
	l-29.198-172.496l7.867-11.842c4.348,3.088,7.699,6.063,13.981,6.063c6.392,0,12.367-3.576,15.308-9.467l30.797-61.725
	l70.156,27.172c2.539,1.088,39.394,17.686,39.394,61.514v48.987h19.534v-48.987c0-57.744-49.442-78.736-51.548-79.602
	c-0.062-0.025-0.123-0.053-0.187-0.074l-116.764-45.221v-27.385c18.545-14.422,31.404-35.803,34.633-60.195
	c9.246-0.65,17.826-4.104,24.834-10.129c9.15-7.871,14.4-19.322,14.4-31.416c0-10.039-3.621-19.623-10.075-27.09v-36.18
	c-0.001-66.742-54.3-121.043-121.042-121.043s-121.041,54.301-121.041,121.043v37.127c-6.522,7.393-10.069,16.492-10.069,26.139
	c0,12.1,5.248,23.551,14.4,31.422c7.002,6.023,15.577,9.473,24.82,10.125c3.256,24.85,16.488,47.027,36.613,61.645v25.938
	l-116.637,45.219c-0.061,0.023-0.123,0.049-0.184,0.072c-2.105,0.867-51.548,21.857-51.548,79.604v203.457
	c0,13.744,11.183,24.928,24.927,24.928h93.05c5.393,0,9.766-4.373,9.766-9.77c0-5.391-4.373-9.764-9.766-9.764h-21.013v-192.328
	c0-5.393-4.373-9.766-9.766-9.766c-5.395,0-9.766,4.373-9.766,9.766v192.33H144.92c-2.973,0-5.392-2.42-5.392-5.393v-203.463
	c0-43.975,37.104-60.533,39.382-61.508l70.102-27.178l30.8,61.729c2.945,5.9,8.93,9.465,15.308,9.465
	c6.251,0,9.57-2.926,13.983-6.063l7.867,11.844l-29.197,172.498c-0.017,0.098-0.031,0.193-0.045,0.293
	c-0.707,5.109,0.873,10.361,4.225,14.051l30.656,33.727h-39.058c-5.394,0-9.767,4.373-9.767,9.766c0,5.395,4.373,9.768,9.767,9.768
	h260.912c13.744,0,24.926-11.182,24.926-24.926v-91.824C569.388,1706.7,565.015,1702.327,559.621,1702.327z M422.008,1504.688
	l-28.712,57.545c-0.716-0.508-15.931-11.316-34.53-24.525c8.071-9.961-1.372,1.691,35.466-43.775L422.008,1504.688z
	 M344.657,1551.649l19.622,13.938l-7.445,11.205h-24.354l-7.445-11.205L344.657,1551.649z M344.656,1524.092l-36.761-45.379v-18.277
	c11.865,4.785,24.545,7.002,36.93,7.002c12.804,0,25.36-2.729,36.527-7.613v18.971L344.656,1524.092z M455.221,1346.436
	c-0.001,6.396-2.772,12.451-7.604,16.605c-3.193,2.748-7.053,4.504-11.277,5.191v-43.594
	C447.563,1326.463,455.221,1335.774,455.221,1346.436z M250.942,1368.233c-11.352-1.842-18.881-11.229-18.881-21.801
	c0-10.439,8.656-18.938,18.881-21.301V1368.233z M251.467,1305.229c-3.11,0.357-6.676,1.199-9.334,2.105v-24.166
	c0-55.975,45.535-101.508,101.507-101.508c55.971,0,101.507,45.533,101.507,101.508v23.494c-2.84-0.863-5.784-1.434-8.806-1.701
	c0-9.424,0.082-7.605-30.747-40.752c-5.67-6.09-15.049-7.367-22.187-2.703c-34.025,22.227-75.531,33.393-113.831,30.643
	C261.177,1291.518,253.525,1297.053,251.467,1305.229z M270.477,1375.924v-60.932v-3.211c42.157,2.469,86.357-10.057,122.065-32.924
	c14.139,15.182,21.795,23.145,24.264,26.172c0,7.662,0,62.121,0,70.893c0,39.646-32.326,71.979-71.98,71.979
	C300.3,1447.903,270.477,1413.36,270.477,1375.924z M296.019,1562.233l-28.712-57.545l27.728-10.738l35.473,43.785
	C312.468,1550.547,297.656,1561.069,296.019,1562.233z M307.224,1763.346l28.27-167.021h18.322l28.271,167.021l-37.431,41.18
	L307.224,1763.346z"/>
</svg>
