<?xml version="1.0" encoding="utf-8"?>
<!-- Generator: Adobe Illustrator 16.0.0, SVG Export Plug-In . SVG Version: 6.00 Build 0)  -->
<!DOCTYPE svg PUBLIC "-//W3C//DTD SVG 1.1//EN" "http://www.w3.org/Graphics/SVG/1.1/DTD/svg11.dtd">
<svg version="1.1" id="Capa_1" xmlns="http://www.w3.org/2000/svg" xmlns:xlink="http://www.w3.org/1999/xlink" x="0px" y="0px"
	 width="512.343px" height="580.004px" viewBox="-633.507 1248.839 512.343 580.004"
	 enable-background="new -633.507 1248.839 512.343 580.004" xml:space="preserve">
<path fill="#F1F1F2" d="M-517.482,1374.505h212.667c5.338,0,9.667-4.328,9.667-9.666c0-5.34-4.328-9.668-9.667-9.668h-212.667
	c-5.34,0-9.667,4.328-9.667,9.668C-527.149,1370.177-522.822,1374.505-517.482,1374.505z"/>
<path fill="#F1F1F2" d="M-517.482,1490.505h212.667c5.338,0,9.667-4.328,9.667-9.666c0-5.34-4.328-9.668-9.667-9.668h-212.667
	c-5.34,0-9.667,4.328-9.667,9.668C-527.149,1486.177-522.822,1490.505-517.482,1490.505z"/>
<path fill="#F1F1F2" d="M-517.482,1606.505h77.333c5.338,0,9.667-4.328,9.667-9.666c0-5.34-4.329-9.668-9.667-9.668h-77.333
	c-5.34,0-9.667,4.328-9.667,9.668C-527.149,1602.177-522.822,1606.505-517.482,1606.505z"/>
<path fill="#F1F1F2" d="M-135.49,1477.232c-13.82-8.081-31.575-3.447-39.684,10.357l-23.309,39.771v-239.855
	c0-5.338-4.329-9.666-9.667-9.666h-73.33c0,0-29.046-29.58-30.208-28.584c-0.906-0.275-1.849-0.416-2.795-0.416H-465.86v19.334
	h141.711v58c0,5.338,4.327,9.666,9.667,9.666h58v290.496l-39.365,67.172h-289.302v-49.557c13.629-3.51,24.273-14.152,27.781-27.785
	c1.33-5.17-1.784-10.443-6.956-11.773c-5.172-1.332-10.443,1.783-11.773,6.955c-1.294,5.021-4.557,9.311-9.052,11.895v-66.291
	c13.629-3.508,24.273-14.152,27.781-27.783c1.33-5.172-1.784-10.443-6.956-11.775c-5.172-1.33-10.443,1.783-11.773,6.955
	c-1.294,5.023-4.557,9.311-9.052,11.896v-75.957c13.629-3.512,24.273-14.154,27.781-27.785c1.33-5.172-1.784-10.443-6.956-11.774
	c-5.172-1.331-10.443,1.782-11.773,6.955c-1.294,5.022-4.557,9.309-9.052,11.896v-75.959c13.629-3.51,24.273-14.154,27.781-27.783
	c1.33-5.172-1.784-10.444-6.956-11.774c-5.172-1.331-10.443,1.782-11.773,6.955c-1.294,5.021-4.557,9.309-9.052,11.896v-74.738
	h58.542c0.142,0.006,0.282,0.021,0.425,0.021h19.395c5.345,0,9.678-4.333,9.678-9.678s-4.333-9.678-9.678-9.678h-7.072h-12.322
	h-68.633c-5.339,0-9.667,4.328-9.667,9.666v30.226c-20.68,5.331-33.122,26.415-27.791,47.094
	c3.514,13.632,14.159,24.277,27.791,27.791v21.782c-20.68,5.331-33.122,26.415-27.791,47.096
	c3.514,13.631,14.159,24.275,27.791,27.789v21.783c-20.68,5.33-33.122,26.414-27.791,47.096
	c3.514,13.631,14.159,24.275,27.791,27.789v12.115c-20.68,5.33-33.122,26.416-27.791,47.096
	c3.514,13.631,14.159,24.275,27.791,27.789v59.225c0,5.338,4.327,9.666,9.667,9.666h9.667v29c0,5.338,4.327,9.668,9.667,9.668
	h245.644l-6.625,11.303c-0.592,1.014-0.995,2.127-1.185,3.289c-0.011,0.055-0.026,0.102-0.034,0.158l-0.025,0.158v0.037
	l-7.732,51.281c-0.795,5.277,2.839,10.201,8.118,11c2.616,0.395,5.28-0.303,7.368-1.924l41.118-31.926
	c2.634-2.045,3.921-3.297,3.717-4.977l22.504-38.402h54.465c5.338,0,9.667-4.328,9.667-9.666v-99.764l73.345-125.162
	C-117.058,1503.093-121.689,1485.343-135.49,1477.232z M-604.482,1623.224c-5.974-3.451-9.657-9.82-9.667-16.719
	c0.01-6.896,3.692-13.268,9.667-16.717V1623.224z M-604.482,1536.222c-5.974-3.449-9.657-9.818-9.667-16.717
	c0.01-6.898,3.692-13.268,9.667-16.717V1536.222z M-604.482,1439.556c-5.974-3.448-9.657-9.818-9.667-16.717
	c0.01-6.898,3.692-13.269,9.667-16.717V1439.556z M-604.482,1342.891c-5.974-3.45-9.657-9.821-9.667-16.718
	c0.01-6.898,3.692-13.269,9.667-16.717V1342.891z M-304.815,1316.505v-34.662l34.662,34.662H-304.815z M-262.145,1297.173h44.329
	v261c0,0.627,0.061,1.252,0.183,1.869l-19.516,33.303v-267.172c0.002-2.561-1.014-5.017-2.824-6.826l-0.008-0.01L-262.145,1297.173z
	 M-565.815,1732.171v-19.332h258.638l-11.331,19.332H-565.815z M-322.723,1796.716l2.03-13.459l8.723,5.111L-322.723,1796.716z
	 M-217.815,1732.171h-33.471l33.471-57.104V1732.171z M-298.216,1774.021l-16.676-9.775l127.073-216.84l16.675,9.775
	L-298.216,1774.021z M-161.363,1540.5l-16.68-9.775l4.886-8.338l16.681,9.775L-161.363,1540.5z M-141.813,1507.138l-4.888,8.338
	l-16.675-9.773l4.889-8.338c1.288-2.217,3.411-3.824,5.893-4.467c5.166-1.348,10.447,1.746,11.794,6.914
	C-140.151,1502.291-140.517,1504.927-141.813,1507.138z"/>
<path fill="#F1F1F2" d="M-341.86,1413.171h-175.622c-5.34,0-9.667,4.328-9.667,9.668c0,5.338,4.328,9.666,9.667,9.666h175.622
	V1413.171z"/>
<path fill="#F1F1F2" d="M-377.335,1529.171h-140.147c-5.34,0-9.667,4.328-9.667,9.668c0,5.338,4.328,9.666,9.667,9.666h140.147
	V1529.171z"/>
</svg>
