<?xml version="1.0" encoding="utf-8"?>
<!-- Generator: Adobe Illustrator 16.0.0, SVG Export Plug-In . SVG Version: 6.00 Build 0)  -->
<!DOCTYPE svg PUBLIC "-//W3C//DTD SVG 1.1//EN" "http://www.w3.org/Graphics/SVG/1.1/DTD/svg11.dtd">
<svg version="1.1" id="Capa_1" xmlns="http://www.w3.org/2000/svg" xmlns:xlink="http://www.w3.org/1999/xlink" x="0px" y="0px"
	 width="649.454px" height="466.843px" viewBox="707.736 1362.001 649.454 466.843"
	 enable-background="new 707.736 1362.001 649.454 466.843" xml:space="preserve">
<g>
	<g>
		<g>
			<path fill="#F1F1F2" d="M1341.761,1471.317l-57.86,57.859l-93.857-93.857l57.859-57.86l-15.457-15.457l-65.587,65.589
				l-51.455,51.454H949.553l-51.456-51.454l-65.588-65.589l-15.457,15.457l57.86,57.86l-93.857,93.857l-57.86-57.859l-15.458,15.457
				l65.588,65.587l54.656,54.657l57.938,57.632l-8.747,8.746c-13.262,13.116-13.38,34.504-0.262,47.77
				c0.087,0.088,0.175,0.174,0.262,0.262c6.091,6.035,14.236,9.549,22.805,9.838c0.313,8.553,3.891,16.659,9.99,22.661
				c6.094,6.029,14.236,9.544,22.804,9.839c0.333,8.566,3.937,16.68,10.067,22.672c6.092,6.03,14.235,9.543,22.804,9.838
				c0.313,8.553,3.889,16.66,9.989,22.661c13.353,13.192,34.834,13.192,48.187,0l8.657-8.67l8.656,8.604
				c13.341,13.316,34.947,13.296,48.264-0.044c6.047-6.058,9.598-14.163,9.946-22.716c8.581-0.311,16.728-3.846,22.814-9.903
				c6.097-6.036,9.667-14.171,9.979-22.746c8.583-0.314,16.73-3.854,22.814-9.916c6.098-6.038,9.667-14.171,9.98-22.749
				c18.766-0.646,33.452-16.384,32.802-35.149c-0.298-8.63-3.869-16.824-9.987-22.917l-8.287-8.254l57.489-57.488l54.657-54.657
				l65.588-65.589L1341.761,1471.317z M796.512,1544.633l93.857-93.857l39.2,39.2l-93.857,93.857L796.512,1544.633z
				 M910.046,1705.884c-4.833,4.824-12.658,4.824-17.49,0c-4.691-4.625-4.747-12.177-0.121-16.867
				c0.039-0.042,0.08-0.082,0.121-0.12l8.886-8.813l17.349,17.141L910.046,1705.884z M942.697,1738.425
				c-4.826,4.715-12.535,4.705-17.349-0.021c-4.693-4.638-4.739-12.202-0.102-16.897c0.033-0.035,0.068-0.072,0.102-0.102
				l8.843-8.748l17.251,17.143L942.697,1738.425z M975.634,1770.914c-4.836,4.814-12.654,4.814-17.49,0
				c-4.692-4.624-4.746-12.174-0.121-16.864c0.038-0.042,0.079-0.082,0.121-0.123l8.812-8.745l17.238,17.143L975.634,1770.914z
				 M1008.428,1803.423c-4.827,4.758-12.577,4.758-17.403,0c-4.69-4.622-4.747-12.174-0.121-16.865
				c0.039-0.041,0.081-0.081,0.121-0.121l8.746-8.691l17.239,17.141L1008.428,1803.423z M1172.415,1705.363
				c-0.021,0.022-0.039,0.041-0.061,0.061h0.044c-4.804,4.769-12.556,4.769-17.359,0l-16.398-16.331
				c-4.276-4.261-11.199-4.251-15.462,0.028c-4.26,4.275-4.248,11.2,0.028,15.462l16.396,16.33
				c4.743,4.709,4.77,12.372,0.061,17.115c-0.021,0.019-0.04,0.038-0.061,0.061c-4.805,4.769-12.555,4.769-17.359,0l-16.396-16.333
				c-4.276-4.262-11.201-4.249-15.463,0.027c-4.262,4.277-4.25,11.201,0.027,15.463l16.397,16.332
				c4.742,4.706,4.769,12.371,0.061,17.11c-0.021,0.023-0.04,0.038-0.061,0.062c-4.804,4.77-12.557,4.77-17.36,0l-16.397-16.331
				c-4.276-4.263-11.201-4.249-15.462,0.028c-4.262,4.276-4.248,11.199,0.027,15.459l16.397,16.332
				c4.744,4.708,4.768,12.373,0.061,17.112c-0.021,0.021-0.04,0.041-0.061,0.06c-4.81,4.768-12.56,4.768-17.371,0L851.19,1599.291
				l98.383-98.383h35.102l-80.237,82.118c-4.187,4.283-4.146,11.133,0.088,15.368c13.548,13.684,31.74,21.784,50.973,22.696
				c19.354,1.024,38.234-6.222,51.936-19.93c0.484-0.479,0.918-1,1.302-1.563l3.958-5.805c23.604,18.61,54.375,25.515,83.668,18.77
				l75.995,75.688C1177.097,1692.959,1177.125,1700.623,1172.415,1705.363z M1164.058,1649.083l-45.856-45.671l8.285-6.307
				c0.392-0.304,0.756-0.638,1.094-0.994l10.931-10.932l-15.455-15.458l-10.397,10.396l-9.456,7.128
				c-29.186,12.485-63.056,5.509-84.936-17.491c-4.27-4.27-11.19-4.27-15.459-0.002c-0.482,0.482-0.916,1.005-1.299,1.566
				l-10.331,15.119c-9.342,8.841-21.892,13.486-34.74,12.856c-10.049-0.52-19.765-3.777-28.093-9.424l86.873-88.962h100.186
				l98.384,98.383L1164.058,1649.083z M1229.244,1583.833l-93.858-93.858l39.2-39.201l93.858,93.857L1229.244,1583.833z"/>
		</g>
	</g>
	<g>
		<g>
			<rect x="824.779" y="1533.702" fill="#F1F1F2" width="21.864" height="21.864"/>
		</g>
	</g>
	<g>
		<g>
			<rect x="1218.313" y="1533.702" fill="#F1F1F2" width="21.862" height="21.864"/>
		</g>
	</g>
</g>
<path fill="#F1F1F2" d="M1251.774,1368.519c0,6.082-4.931,11.013-11.014,11.013l0,0c-6.082,0-11.014-4.931-11.014-11.013l0,0
	c0-6.083,4.932-11.015,11.014-11.015l0,0C1246.844,1357.504,1251.774,1362.436,1251.774,1368.519L1251.774,1368.519z"/>
</svg>
