<?xml version="1.0" encoding="utf-8"?>
<!-- Generator: Adobe Illustrator 16.0.0, SVG Export Plug-In . SVG Version: 6.00 Build 0)  -->
<!DOCTYPE svg PUBLIC "-//W3C//DTD SVG 1.1//EN" "http://www.w3.org/Graphics/SVG/1.1/DTD/svg11.dtd">
<svg version="1.1" id="Layer_1" xmlns="http://www.w3.org/2000/svg" xmlns:xlink="http://www.w3.org/1999/xlink" x="0px" y="0px"
	 width="54.281px" height="54.274px" viewBox="0 0 54.281 54.274" enable-background="new 0 0 54.281 54.274" xml:space="preserve">
<g>
	<path fill="#4E767F" d="M5.388,0C2.417,0,0,2.429,0,5.41c0,2.967,2.417,5.381,5.388,5.381c2.996,0,5.431-2.414,5.431-5.381
		C10.819,2.429,8.383,0,5.388,0z"/>
	<rect y="18.089" fill="#4E767F" width="10.819" height="36.186"/>
	<path fill="#4E767F" d="M43.462,34.382v19.893h10.819V34.382c0-10.05-5.539-16.293-14.454-16.293c-3.218,0-5.665,0.79-7.931,2.572
		l-2.974,2.327v-4.899H18.118v36.186h10.804V34.382c0-5.604,2.788-9.087,7.27-9.087C40.675,25.295,43.462,28.778,43.462,34.382z"/>
</g>
</svg>
